<svg width="44" height="20" viewBox="0 0 44 20" fill="none" xmlns="http://www.w3.org/2000/svg">
<path d="M3.68984 2.55V20H0.189844V2.55H3.68984ZM10.6479 1.5V20H7.14785V1.5H10.6479ZM15.8809 4.5C15.2642 4.5 14.7475 4.30833 14.3309 3.925C13.9309 3.525 13.7309 3.03333 13.7309 2.45C13.7309 1.86667 13.9309 1.38333 14.3309 0.999999C14.7475 0.599999 15.2642 0.399999 15.8809 0.399999C16.4975 0.399999 17.0059 0.599999 17.4059 0.999999C17.8225 1.38333 18.0309 1.86667 18.0309 2.45C18.0309 3.03333 17.8225 3.525 17.4059 3.925C17.0059 4.30833 16.4975 4.5 15.8809 4.5ZM17.6059 6.15V20H14.1059V6.15H17.6059ZM38.2639 5.95C39.9639 5.95 41.3305 6.475 42.3639 7.525C43.4139 8.55833 43.9389 10.0083 43.9389 11.875V20H40.4389V12.35C40.4389 11.2667 40.1639 10.4417 39.6139 9.875C39.0639 9.29167 38.3139 9 37.3639 9C36.4139 9 35.6555 9.29167 35.0889 9.875C34.5389 10.4417 34.2639 11.2667 34.2639 12.35V20H30.7639V12.35C30.7639 11.2667 30.4889 10.4417 29.9389 9.875C29.3889 9.29167 28.6389 9 27.6889 9C26.7222 9 25.9555 9.29167 25.3889 9.875C24.8389 10.4417 24.5639 11.2667 24.5639 12.35V20H21.0639V6.15H24.5639V7.825C25.0139 7.24167 25.5889 6.78333 26.2889 6.45C27.0055 6.11667 27.7889 5.95 28.6389 5.95C29.7222 5.95 30.6889 6.18333 31.5389 6.65C32.3889 7.1 33.0472 7.75 33.5139 8.6C33.9639 7.8 34.6139 7.15833 35.4639 6.675C36.3305 6.19167 37.2639 5.95 38.2639 5.95Z" fill="#25114E"/>
</svg>
